<?xml version="1.0" standalone="no"?>
<!DOCTYPE svg PUBLIC "-//W3C//DTD SVG 20010904//EN" "http://www.w3.org/TR/2001/REC-SVG-20010904/DTD/svg10.dtd">
<svg xmlns="http://www.w3.org/2000/svg"
     width="819.2pt"
     height="819.2pt"
     viewBox="0 0 819.2 819.2">
    <path id="bubble" transform="matrix(-1.84535913987032 0 0 1.69334667455823 707.163710606873 106.706946098292)" fill="#fd7e15" stroke="#000000" stroke-opacity="0" stroke-width="0" stroke-linecap="square" stroke-linejoin="bevel" d="M26.7003 1.45885C12.8404 3.55982 6.06895 11.1513 2.80067 20.5385C-1.39834 32.599 0.438038 63.5486 0.199621 70.5305C-0.0387957 77.5124 0.224634 180.227 0.316976 179.835C0.409317 179.443 -0.948597 196.419 1.73623 210.354C5.81272 223.546 16.2091 231.233 32.9254 233.418L72.2566 266.95C66.967 244.113 66.6929 232.694 71.4342 232.694C218.08 233.176 291.403 233.418 291.403 233.418C299.389 233.373 310.08 229.038 316.811 218.118C323.542 207.2 322.167 192.46 322.264 175.353C322.264 175.353 322.264 68.155 322.264 68.155C322.247 57.516 323.706 33.6174 320.677 22.5049C318.193 13.3949 311.552 3.82768 299.976 1.79291C292.259 0.436403 246.017 -0.12037 161.25 0.122596C79.8259 -0.241072 34.9761 0.204346 26.7003 1.45885Z"/>
    <text id="text" transform="matrix(0.999999985098839 0 0 0.999999985098839 111.357810840606 705.165429492166)" fill="#faeee2" stroke="#000000" stroke-opacity="0" stroke-width="0" stroke-linecap="square" stroke-linejoin="bevel" font-size="144" font-size-adjust="0.456818" font-stretch="normal" font-weight="300" letter-spacing="0" word-spacing="0"><tspan x="0">CHATINUE</tspan></text>
</svg>
