<?xml version="1.0" encoding="UTF-8" standalone="no"?>
<!DOCTYPE svg PUBLIC "-//W3C//DTD SVG 20010904//EN"
              "http://www.w3.org/TR/2001/REC-SVG-20010904/DTD/svg10.dtd">
<svg xmlns="http://www.w3.org/2000/svg"
     width="5.68889in" height="5.68889in"
     viewBox="0 0 512 512">
  <path id="person1"
        fill="#1ca6a6" stroke="#1b8e8e" stroke-width="1"
        d="M 181.00,255.00
           C 175.63,258.80 162.54,264.30 156.00,267.31
             156.00,267.31 118.00,285.14 118.00,285.14
             110.42,288.52 95.19,294.13 91.01,301.00
             88.23,305.57 88.01,311.80 88.00,317.00
             88.00,317.00 88.00,371.00 88.00,371.00
             88.01,377.77 88.50,386.57 94.21,391.20
             98.66,394.81 104.65,394.00 110.00,394.00
             110.00,394.00 142.00,394.00 142.00,394.00
             142.00,394.00 317.00,394.00 317.00,394.00
             319.98,394.00 323.19,394.16 325.99,392.99
             334.34,389.52 334.99,378.77 335.00,371.00
             335.00,371.00 335.00,316.00 335.00,316.00
             334.99,308.99 334.38,301.74 328.67,296.79
             325.19,293.76 316.45,290.12 312.00,288.14
             312.00,288.14 290.00,277.69 290.00,277.69
             290.00,277.69 243.00,256.00 243.00,256.00
             258.82,241.46 265.99,234.41 271.98,213.00
             275.89,198.21 275.64,185.84 271.98,171.00
             269.35,159.35 265.38,150.57 258.10,141.00
             236.23,112.24 194.03,109.63 169.17,136.04
             146.60,160.02 142.21,198.90 156.76,228.00
             162.19,238.87 170.02,249.35 181.00,255.00 Z" />
  <path id="person2"
        fill="#1b8e8e" stroke="#1b8e8e" stroke-width="1"
        d="M 93.00,258.00
           C 93.00,258.00 39.00,283.74 39.00,283.74
             32.79,286.75 22.76,289.53 19.57,296.02
             17.87,299.47 18.01,303.26 18.00,307.00
             18.00,307.00 18.00,345.00 18.00,345.00
             18.00,350.28 17.35,359.43 19.57,364.00
             22.73,370.51 27.58,370.97 34.00,371.00
             34.00,371.00 71.00,371.00 71.00,371.00
             71.00,371.00 71.00,329.00 71.00,329.00
             71.00,312.00 69.70,298.83 82.30,285.09
             89.21,277.55 97.08,274.79 106.00,270.69
             106.00,270.69 147.00,251.00 147.00,251.00
             147.00,251.00 138.06,232.00 138.06,232.00
             132.63,217.81 130.98,207.08 131.00,192.00
             131.03,172.50 137.17,163.84 139.00,152.00
             130.83,149.69 128.78,147.24 119.00,147.01
             104.76,146.69 91.73,152.43 82.17,163.00
             64.77,182.27 61.73,212.86 72.78,236.00
             76.88,244.57 83.93,254.45 93.00,258.00 Z" />
  <path id="bar1"
        fill="#9ad4f0" stroke="#5bbeee" stroke-width="1"
        d="M 26.00,25.53
           C 19.06,27.82 18.10,31.07 18.00,38.00
             18.00,38.00 18.00,62.00 18.00,62.00
             18.02,74.95 21.48,76.98 34.00,77.00
             34.00,77.00 127.00,77.00 127.00,77.00
             127.00,77.00 474.00,77.00 474.00,77.00
             484.43,76.98 489.84,75.86 490.00,64.00
             490.00,64.00 490.00,40.00 490.00,40.00
             490.00,37.11 490.15,33.74 488.99,31.04
             485.45,22.81 470.58,25.00 463.00,25.00
             463.00,25.00 383.00,25.00 383.00,25.00
             383.00,25.00 144.00,25.00 144.00,25.00
             144.00,25.00 66.00,25.00 66.00,25.00
             66.00,25.00 26.00,25.53 26.00,25.53 Z" />
  <path id="bar2"
        fill="#ea7390" stroke="#f04d74" stroke-width="1"
        d="M 300.00,128.53
           C 297.02,129.50 294.93,130.13 293.31,133.11
             291.92,135.66 292.01,139.16 292.00,142.00
             292.00,142.00 292.00,165.00 292.00,165.00
             292.01,168.85 291.69,173.56 294.51,176.58
             297.39,179.68 302.06,179.95 306.00,180.00
             306.00,180.00 335.00,180.00 335.00,180.00
             335.00,180.00 474.00,180.00 474.00,180.00
             478.47,179.99 484.17,180.15 487.49,176.58
             489.93,173.96 489.96,170.36 490.00,167.00
             490.00,167.00 490.00,143.00 490.00,143.00
             489.99,139.15 490.31,134.44 487.49,131.42
             484.61,128.32 479.94,128.05 476.00,128.00
             476.00,128.00 447.00,128.00 447.00,128.00
             447.00,128.00 350.00,128.00 350.00,128.00
             350.00,128.00 300.00,128.53 300.00,128.53 Z" />
  <path id="bar3"
        fill="#f59324" stroke="#f48200" stroke-width="1"
        d="M 332.00,230.53
           C 328.98,231.53 327.12,232.12 325.45,235.11
             323.93,237.82 324.02,240.99 324.00,244.00
             324.00,244.00 324.00,267.00 324.00,267.00
             324.01,270.65 323.77,274.66 326.01,277.78
             329.18,282.21 335.14,281.99 340.00,282.00
             340.00,282.00 359.00,282.00 359.00,282.00
             359.00,282.00 474.00,282.00 474.00,282.00
             478.14,281.99 483.26,282.17 486.61,279.30
             489.76,276.59 489.95,272.83 490.00,269.00
             490.00,269.00 490.00,245.00 490.00,245.00
             489.99,241.00 490.26,236.60 487.35,233.42
             484.49,230.28 479.95,230.05 476.00,230.00
             476.00,230.00 454.00,230.00 454.00,230.00
             454.00,230.00 374.00,230.00 374.00,230.00
             374.00,230.00 332.00,230.53 332.00,230.53 Z
           " />
  <path id="bar4"
        fill="#6bd772" stroke="#32d23c" stroke-width="1"
        d="M 363.00,332.53
           C 359.98,333.53 358.12,334.12 356.45,337.11
             354.93,339.82 355.02,342.99 355.00,346.00
             355.00,346.00 355.00,369.00 355.00,369.00
             355.01,372.27 354.80,375.94 356.45,378.89
             360.46,386.06 376.61,384.00 384.00,384.00
             384.00,384.00 474.00,384.00 474.00,384.00
             478.14,383.99 483.26,384.17 486.61,381.30
             489.76,378.59 489.95,374.83 490.00,371.00
             490.00,371.00 490.00,347.00 490.00,347.00
             489.99,343.73 490.20,340.06 488.55,337.11
             484.54,329.94 468.39,332.00 461.00,332.00
             461.00,332.00 397.00,332.00 397.00,332.00
             397.00,332.00 363.00,332.53 363.00,332.53 Z" />
  <path id="bar5"
        fill="#9ad4f0" stroke="#5bbeee" stroke-width="1"
        d="M 27.00,436.53
           C 20.06,438.82 19.10,442.07 19.00,449.00
             19.00,449.00 19.00,473.00 19.00,473.00
             19.02,485.95 22.48,487.98 35.00,488.00
             35.00,488.00 128.00,488.00 128.00,488.00
             128.00,488.00 475.00,488.00 475.00,488.00
             485.43,487.98 490.84,486.86 491.00,475.00
             491.00,475.00 491.00,451.00 491.00,451.00
             491.00,448.11 491.15,444.74 489.99,442.04
             486.45,433.81 471.58,436.00 464.00,436.00
             464.00,436.00 384.00,436.00 384.00,436.00
             384.00,436.00 145.00,436.00 145.00,436.00
             145.00,436.00 67.00,436.00 67.00,436.00
             67.00,436.00 27.00,436.53 27.00,436.53 Z" />
</svg>
